<?xml version="1.0" encoding="utf-8"?>
<!-- Generator: Adobe Illustrator 25.2.1, SVG Export Plug-In . SVG Version: 6.00 Build 0)  -->
<svg version="1.1" id="图层_1" xmlns="http://www.w3.org/2000/svg"
     xmlns:xlink="http://www.w3.org/1999/xlink" x="0px" y="0px"
     viewBox="0 0 300 300" style="enable-background:new 0 0 300 300;"
     xml:space="preserve">
<g>
	<path d="M261.7,244c2.4,2.9,4.2,6.9,4.8,10.6c0.8,4.7-2.5,7.7-7.2,7.7c-32.3-0.2-42.6-0.2-66.7-0.2c-2.7-0.1-6.1-2.6-7.9-5
		c-23.1-29.1-82.1-104.1-82.1-104.1v0.4v97.8c0,8.8-2.2,10.9-10.9,10.9c-16.3,0-32.6,0-48.9,0c-6.9,0-9.7-2.6-9.7-9.3
		C33,185.5,33,118,33,50.5c0-6.1,3.2-9.4,9.3-9.4c17.2-0.1,34.4-0.1,51.5,0c6.9,0,11.8,3.8,15.9,9.1"/>
  <path d="M266.3,142.6c-0.1,7.8-4,8.9-7.1,10c-3.1,1-5.9-0.1-9.2-3.7c-3.4-3.7-48.6-60.6-72.6-91.2c-2.1-2.6-3.3-7.5-1.2-11
		c2.1-3.6,5.8-4.4,9-4.5c23.4-0.4,46.9-0.3,70.4-0.2c7.7,0,10.8,2.8,10.9,10.9"/>
</g>
  <path d="M102.5,153.1"/>
</svg>
