<svg height="200" viewBox="0 0 1024 1024" width="200"
     xmlns="http://www.w3.org/2000/svg">
  <path
    d="m512 0c282.773333 0 512 229.226667 512 512s-229.226667 512-512 512-512-229.226667-512-512 229.226667-512 512-512zm169.749333 554.666667h-339.498666c9.429333 217.792 89.813333 384 169.749333 384 79.914667 0 160.32-166.208 169.749333-384zm-424.917333 0-169.386667.021333c15.658667 157.568 117.034667 289.92 256.853334 349.76-50.282667-85.738667-82.069333-210.346667-87.466667-349.76zm679.722667.021333h-169.386667c-5.397333 139.434667-37.184 264.021333-87.466667 349.738667 139.818667-59.797333 241.194667-192.170667 256.853334-349.738667zm-592.234667-435.114667-4.736 2.048c-137.408 60.757334-236.672 191.914667-252.117333 347.712h169.386666c5.397333-139.434667 37.184-264.042667 87.466667-349.76zm167.68-34.24-3.2.085334c-78.848 4.352-157.226667 169.045333-166.549333 383.914666h339.498666c-9.429333-217.770666-89.813333-384-169.749333-384zm167.701333 34.218667 3.136 5.44c48.469334 85.504 79.04 207.808 84.309334 344.341333h169.386666c-15.637333-157.589333-117.034667-289.941333-256.853333-349.781333z"/>
</svg>
