<svg enable-background="new 0 0 300 300" viewBox="0 0 300 300"
     xmlns="http://www.w3.org/2000/svg">
  <path
    d="m261.7 244c2.4 2.9 4.2 6.9 4.8 10.6.8 4.7-2.5 7.7-7.2 7.7-32.3-.2-42.6-.2-66.7-.2-2.7-.1-6.1-2.6-7.9-5-23.1-29.1-82.1-104.1-82.1-104.1v.4 97.8c0 8.8-2.2 10.9-10.9 10.9-16.3 0-32.6 0-48.9 0-6.9 0-9.7-2.6-9.7-9.3-.1-67.3-.1-134.8-.1-202.3 0-6.1 3.2-9.4 9.3-9.4 17.2-.1 34.4-.1 51.5 0 6.9 0 11.8 3.8 15.9 9.1"/>
  <path
    d="m266.3 142.6c-.1 7.8-4 8.9-7.1 10-3.1 1-5.9-.1-9.2-3.7-3.4-3.7-48.6-60.6-72.6-91.2-2.1-2.6-3.3-7.5-1.2-11 2.1-3.6 5.8-4.4 9-4.5 23.4-.4 46.9-.3 70.4-.2 7.7 0 10.8 2.8 10.9 10.9"/>
</svg>
